#N canvas 573 67 682 516 10;
#X obj 307 447 dac~;
#X msg 506 179 1;
#X msg 453 179 0;
#X msg 436 151 open ./Lament.wav;
#X obj 440 205 readsf~ 1;
#X obj 261 329 *~;
#X obj 339 333 *~;
#X obj 261 404 *~ 0.5;
#X obj 339 404 *~ 0.5;
#X obj 261 372 *~ 0.7;
#X obj 339 372 *~ 0.7;
#X obj 447 109 loadbang;
#X obj 59 225 cos;
#X obj 103 225 sin;
#X obj 68 98 r bno-yaw;
#X obj 19 286 change;
#X obj 19 308 print;
#X text 126 99 range from pi/2 (left to -pi/2 (right);
#X obj 68 153 + 1.57;
#X obj 68 175 * 0.5;
#X text 21 224 left;
#X text 130 225 right;
#X obj 68 126 clip -1.57 1.57;
#X text 494 23 HEAD-TRACKED STEREO EXAMPLE;
#X text 387 88 Handling opening the audio file;
#X text 66 68 Input from IMU;
#X text 26 81 can receive bno-yaw \, bno-pitch \, or bno-roll;
#X text 391 372 Volume;
#X text 389 405 Protects from clipping;
#X connect 1 0 4 0;
#X connect 2 0 4 0;
#X connect 3 0 4 0;
#X connect 4 0 5 0;
#X connect 4 0 6 0;
#X connect 5 0 9 0;
#X connect 6 0 10 0;
#X connect 7 0 0 0;
#X connect 8 0 0 1;
#X connect 9 0 7 0;
#X connect 10 0 8 0;
#X connect 11 0 3 0;
#X connect 11 0 1 0;
#X connect 12 0 5 1;
#X connect 12 0 15 0;
#X connect 13 0 6 1;
#X connect 14 0 22 0;
#X connect 15 0 16 0;
#X connect 18 0 19 0;
#X connect 19 0 12 0;
#X connect 19 0 13 0;
#X connect 22 0 18 0;
