#N canvas 573 67 490 546 10;
#X obj 95 429 dac~;
#X msg 274 67 1;
#X msg 273 95 0;
#X msg 145 67 open ./Lament.wav;
#X obj 146 106 readsf~ 1;
#X floatatom 99 187 5 0 0 0 - - -, f 5;
#X obj 40 157 hsl 128 15 0 1.57 0 0 empty empty empty -2 -8 0 10 -262144
-1 -1 0 1;
#X obj 64 349 *~;
#X obj 123 349 *~;
#X obj 64 383 *~ 0.5;
#X obj 123 382 *~ 0.5;
#X obj 144 40 loadbang;
#X obj 79 310 cos;
#X obj 138 310 sin;
#X text 352 15 PANNING EXAMPLE;
#X text 17 139 left;
#X text 159 136 right;
#X text 172 383 Volume (0 to 1);
#X connect 1 0 4 0;
#X connect 2 0 4 0;
#X connect 3 0 4 0;
#X connect 4 0 7 0;
#X connect 4 0 8 0;
#X connect 6 0 5 0;
#X connect 6 0 12 0;
#X connect 6 0 13 0;
#X connect 7 0 9 0;
#X connect 8 0 10 0;
#X connect 9 0 0 0;
#X connect 10 0 0 1;
#X connect 11 0 3 0;
#X connect 12 0 7 1;
#X connect 13 0 8 1;
