#N canvas 176 117 829 473 10;
#X obj 199 417 s sourcePosition1;
#X floatatom 185 294 5 0 0 0 - - -, f 5;
#X obj 185 249 i;
#X obj 222 207 + 1, f 6;
#X text 219 249 Store the number;
#X text 270 207 Add 1 to the number and output the answer;
#X text 244 140 Reset counter;
#X text 27 103 Counter input;
#X obj 164 63 loadbang;
#X text 235 293 The current position;
#X text 270 323 Rotate through 0 to 359;
#X text 236 365 Move to range -180 to 179;
#X obj 187 366 - 180;
#X obj 76 399 print position;
#X obj 131 101 metro 100;
#X obj 285 346 select 1;
#X obj 217 320 == 360;
#X obj 390 398 delay 5;
#X msg 213 161 0;
#X text 82 24 Virtual VBAP Rotating Sound Example;
#X connect 1 0 12 0;
#X connect 1 0 16 0;
#X connect 2 0 1 0;
#X connect 2 0 3 0;
#X connect 3 0 2 1;
#X connect 8 0 18 0;
#X connect 8 0 14 0;
#X connect 12 0 0 0;
#X connect 12 0 13 0;
#X connect 14 0 2 0;
#X connect 15 0 17 0;
#X connect 16 0 15 0;
#X connect 17 0 18 0;
#X connect 18 0 2 0;
